HIERARCHY
ROOT reference
{
  OFFSET 0 0 0
  CHANNELS 6 Xposition Yposition Zposition Zrotation Xrotation Yrotation
  JOINT Hips
  {
    OFFSET 387.421 88.6843 214.036
    CHANNELS 3 Zrotation Xrotation Yrotation
    JOINT RightUpLeg
    {
      OFFSET -9.26407 -1.54033 -0.0169218
      CHANNELS 3 Zrotation Xrotation Yrotation
      JOINT RightLeg
      {
        OFFSET 0.0262756 -41.889 0.0389421
        CHANNELS 3 Zrotation Xrotation Yrotation
        JOINT RightFoot
        {
          OFFSET -0.025595 -42.7244 0.117519
          CHANNELS 3 Zrotation Xrotation Yrotation
          End Site
          {
            OFFSET 0 -7.69 17.5
          }
        }
      }
    }
    JOINT LeftUpLeg
    {
      OFFSET 9.28488 -1.63184 0.00456132
      CHANNELS 3 Zrotation Xrotation Yrotation
      JOINT LeftLeg
      {
        OFFSET -0.00133996 -41.8929 0.0117795
        CHANNELS 3 Zrotation Xrotation Yrotation
        JOINT LeftFoot
        {
          OFFSET 0.253805 -40.8902 0.809143
          CHANNELS 3 Zrotation Xrotation Yrotation
          End Site
          {
            OFFSET 0 -7.69 17.5
          }
        }
      }
    }
    JOINT Spine
    {
      OFFSET 0.04218 14.2944 0.0529257
      CHANNELS 3 Zrotation Xrotation Yrotation
      JOINT Spine1
      {
        OFFSET 0.022284 9.72228 0.00997239
        CHANNELS 3 Zrotation Xrotation Yrotation
        JOINT Spine2
        {
          OFFSET 0.0397412 10.1199 -0.0103674
          CHANNELS 3 Zrotation Xrotation Yrotation
          JOINT Spine3
          {
            OFFSET 0.0389473 9.71765 -0.00772733
            CHANNELS 3 Zrotation Xrotation Yrotation
            JOINT Neck
            {
              OFFSET 0.0437972 10.3765 0.0320322
              CHANNELS 3 Zrotation Xrotation Yrotation
              JOINT Head
              {
                OFFSET 0.0431994 9.46781 0.0291763
                CHANNELS 3 Zrotation Xrotation Yrotation
                End Site
                {
                  OFFSET 0 15.95 0
                }
              }
            }
            JOINT RightShoulder
            {
              OFFSET -3.17206 6.93005 0.0018626
              CHANNELS 3 Zrotation Xrotation Yrotation
              JOINT RightArm
              {
                OFFSET -12.781 0.0116363 0.0199633
                CHANNELS 3 Zrotation Xrotation Yrotation
                JOINT RightForeArm
                {
                  OFFSET -26.5135 -0.0113607 0.0486864
                  CHANNELS 3 Zrotation Xrotation Yrotation
                  JOINT RightHand
                  {
                    OFFSET -25.9857 -0.0984063 0.163753
                    CHANNELS 3 Zrotation Xrotation Yrotation
                    JOINT RightHandThumb1
                    {
                      OFFSET -2.48905 0.190105 3.12053
                      CHANNELS 3 Zrotation Xrotation Yrotation
                      JOINT RightHandThumb2
                      {
                        OFFSET -3.68274 0 0
                        CHANNELS 3 Zrotation Xrotation Yrotation
                        JOINT RightHandThumb3
                        {
                          OFFSET -2.55832 0 0
                          CHANNELS 3 Zrotation Xrotation Yrotation
                          End Site
                          {
                            OFFSET -2.194 0 0
                          }
                        }
                      }
                    }
                    JOINT RightInHandIndex
                    {
                      OFFSET -3.22368 0.508421 1.97842
                      CHANNELS 3 Zrotation Xrotation Yrotation
                      JOINT RightHandIndex1
                      {
                        OFFSET -5.21684 -0.091368 0.999158
                        CHANNELS 3 Zrotation Xrotation Yrotation
                        JOINT RightHandIndex2
                        {
                          OFFSET -3.61937 0 0
                          CHANNELS 3 Zrotation Xrotation Yrotation
                          JOINT RightHandIndex3
                          {
                            OFFSET -2.0521 0 0
                            CHANNELS 3 Zrotation Xrotation Yrotation
                            End Site
                            {
                              OFFSET -1.805 0 0
                            }
                          }
                        }
                      }
                    }
                    JOINT RightInHandMiddle
                    {
                      OFFSET -3.38211 0.517263 0.756737
                      CHANNELS 3 Zrotation Xrotation Yrotation
                      JOINT RightHandMiddle1
                      {
                        OFFSET -5.17411 -0.084 0.313895
                        CHANNELS 3 Zrotation Xrotation Yrotation
                        JOINT RightHandMiddle2
                        {
                          OFFSET -3.94947 0 0
                          CHANNELS 3 Zrotation Xrotation Yrotation
                          JOINT RightHandMiddle3
                          {
                            OFFSET -2.47579 0 0
                            CHANNELS 3 Zrotation Xrotation Yrotation
                            End Site
                            {
                              OFFSET -1.975 0 0
                            }
                          }
                        }
                      }
                    }
                    JOINT RightInHandRing
                    {
                      OFFSET -3.36516 0.537895 -0.128947
                      CHANNELS 3 Zrotation Xrotation Yrotation
                      JOINT RightHandRing1
                      {
                        OFFSET -4.63474 -0.022105 -0.478947
                        CHANNELS 3 Zrotation Xrotation Yrotation
                        JOINT RightHandRing2
                        {
                          OFFSET -3.44238 0 0
                          CHANNELS 3 Zrotation Xrotation Yrotation
                          JOINT RightHandRing3
                          {
                            OFFSET -2.3881 0 0
                            CHANNELS 3 Zrotation Xrotation Yrotation
                            End Site
                            {
                              OFFSET -1.857 0 0
                            }
                          }
                        }
                      }
                    }
                    JOINT RightInHandPinky
                    {
                      OFFSET -3.16105 0.469368 -1.20179
                      CHANNELS 3 Zrotation Xrotation Yrotation
                      JOINT RightHandPinky1
                      {
                        OFFSET -4.14105 -0.022105 -1.09053
                        CHANNELS 3 Zrotation Xrotation Yrotation
                        JOINT RightHandPinky2
                        {
                          OFFSET -2.75653 0 0
                          CHANNELS 3 Zrotation Xrotation Yrotation
                          JOINT RightHandPinky3
                          {
                            OFFSET -1.74189 0 0
                            CHANNELS 3 Zrotation Xrotation Yrotation
                            End Site
                            {
                              OFFSET -1.645 0 0
                            }
                          }
                        }
                      }
                    }
                  }
                }
              }
            }
            JOINT LeftShoulder
            {
              OFFSET 3.23848 6.90919 -0.0119143
              CHANNELS 3 Zrotation Xrotation Yrotation
              JOINT LeftArm
              {
                OFFSET 12.8241 -0.0554782 -0.0520121
                CHANNELS 3 Zrotation Xrotation Yrotation
                JOINT LeftForeArm
                {
                  OFFSET 26.4865 -0.0658343 -0.0244543
                  CHANNELS 3 Zrotation Xrotation Yrotation
                  JOINT LeftHand
                  {
                    OFFSET 25.985 -0.0475988 -0.0124738
                    CHANNELS 3 Zrotation Xrotation Yrotation
                    JOINT LeftHandThumb1
                    {
                      OFFSET 2.48905 0.190105 3.12053
                      CHANNELS 3 Zrotation Xrotation Yrotation
                      JOINT LeftHandThumb2
                      {
                        OFFSET 3.68274 0 0
                        CHANNELS 3 Zrotation Xrotation Yrotation
                        JOINT LeftHandThumb3
                        {
                          OFFSET 2.55832 0 0
                          CHANNELS 3 Zrotation Xrotation Yrotation
                          End Site
                          {
                            OFFSET 2.194 0 0
                          }
                        }
                      }
                    }
                    JOINT LeftInHandIndex
                    {
                      OFFSET 3.22368 0.508421 1.97842
                      CHANNELS 3 Zrotation Xrotation Yrotation
                      JOINT LeftHandIndex1
                      {
                        OFFSET 5.21684 -0.091368 0.999158
                        CHANNELS 3 Zrotation Xrotation Yrotation
                        JOINT LeftHandIndex2
                        {
                          OFFSET 3.61937 0 0
                          CHANNELS 3 Zrotation Xrotation Yrotation
                          JOINT LeftHandIndex3
                          {
                            OFFSET 2.0521 0 0
                            CHANNELS 3 Zrotation Xrotation Yrotation
                            End Site
                            {
                              OFFSET 1.805 0 0
                            }
                          }
                        }
                      }
                    }
                    JOINT LeftInHandMiddle
                    {
                      OFFSET 3.38211 0.517263 0.756737
                      CHANNELS 3 Zrotation Xrotation Yrotation
                      JOINT LeftHandMiddle1
                      {
                        OFFSET 5.17411 -0.084 0.313895
                        CHANNELS 3 Zrotation Xrotation Yrotation
                        JOINT LeftHandMiddle2
                        {
                          OFFSET 3.94947 0 0
                          CHANNELS 3 Zrotation Xrotation Yrotation
                          JOINT LeftHandMiddle3
                          {
                            OFFSET 2.47579 0 0
                            CHANNELS 3 Zrotation Xrotation Yrotation
                            End Site
                            {
                              OFFSET 1.975 0 0
                            }
                          }
                        }
                      }
                    }
                    JOINT LeftInHandRing
                    {
                      OFFSET 3.36516 0.537895 -0.128947
                      CHANNELS 3 Zrotation Xrotation Yrotation
                      JOINT LeftHandRing1
                      {
                        OFFSET 4.63474 -0.022105 -0.478947
                        CHANNELS 3 Zrotation Xrotation Yrotation
                        JOINT LeftHandRing2
                        {
                          OFFSET 3.44238 0 0
                          CHANNELS 3 Zrotation Xrotation Yrotation
                          JOINT LeftHandRing3
                          {
                            OFFSET 2.3881 0 0
                            CHANNELS 3 Zrotation Xrotation Yrotation
                            End Site
                            {
                              OFFSET 1.857 0 0
                            }
                          }
                        }
                      }
                    }
                    JOINT LeftInHandPinky
                    {
                      OFFSET 3.16105 0.469368 -1.20179
                      CHANNELS 3 Zrotation Xrotation Yrotation
                      JOINT LeftHandPinky1
                      {
                        OFFSET 4.14105 -0.022105 -1.09053
                        CHANNELS 3 Zrotation Xrotation Yrotation
                        JOINT LeftHandPinky2
                        {
                          OFFSET 2.75653 0 0
                          CHANNELS 3 Zrotation Xrotation Yrotation
                          JOINT LeftHandPinky3
                          {
                            OFFSET 1.74189 0 0
                            CHANNELS 3 Zrotation Xrotation Yrotation
                            End Site
                            {
                              OFFSET 1.645 0 0
                            }
                          }
                        }
                      }
                    }
                  }
                }
              }
            }
          }
        }
      }
    }
  }
}
MOTION
Frames: 2
Frame Time: 0.00833333
3.150000000000000000e+03 0.000000000000000000e+00 0.000000000000000000e+00 0.000000000000000000e+00 0.000000000000000000e+00 0.000000000000000000e+00 2.590480000000000160e+01 8.216729999999987655e-01 -1.265489999999999782e+02 3.660940000000000794e+01 -3.875070000000000192e+01 3.526619999999999777e+01 -7.401120000000000587e+00 1.627949999999999875e+01 -2.809960000000000235e+00 4.380020000000000024e+00 8.503740000000000521e+00 4.898029999999999262e+01 3.646670000000000300e+01 -2.047149999999999892e+01 2.516850000000000875e+01 -2.381490000000000151e+01 4.316160000000000707e+01 2.696580000000000155e+01 -4.409750000000000725e+00 -2.854019999999999868e+01 1.779939999999999856e+00 -5.202079999999998705e+00 -4.803459999999998509e+00 -1.150089999999999790e+01 -1.211030000000000051e+00 -1.374840000000000284e+00 -2.768209999999999837e+00 -2.031000000000000139e+00 -2.304290000000000393e+00 -4.502519999999999634e+00 -5.913660000000000583e-01 -3.019950000000000134e-01 2.569389999999999397e+00 -1.124989999999999712e+00 -4.639479999999998938e+00 2.911600000000000321e+01 -1.002270000000000039e+01 5.075700000000000323e+00 3.109900000000000020e+01 -8.358209999999999251e-01 -1.485620000000000829e-01 5.290219999999997924e+00 8.721849999999996328e+00 -6.428010000000000446e+01 -2.097470000000000212e+01 3.889250000000000540e+01 2.542760000000001241e+00 1.196010000000000133e+02 1.817539999999999267e+01 -2.295959999999999823e+01 3.425679999999998948e+00 2.818400000000000105e+01 1.072940000000000005e+01 1.915919999999999845e+01 -6.557470000000002009e-16 7.156249999999999484e-15 -1.000000000000000000e+01 -1.377629999999999944e-14 0.000000000000000000e+00 -1.000000000000000000e+01 -3.975690000000000513e-16 -6.361110000000000530e-15 -7.951389999999995282e-16 1.998179999999999978e+01 8.718970000000000331e-01 2.396399999999999864e+00 2.400000000000000000e+01 -1.192709999999999929e-14 1.590279999999999485e-15 2.000000000000000000e+01 -1.043619999999999867e-14 -4.452779999999999910e-14 -3.975690000000000513e-16 -6.361110000000000530e-15 -7.951389999999995282e-16 2.000000000000000000e+01 -4.770830000000000256e-15 1.431249999999999897e-14 2.400000000000000000e+01 1.590280000000000274e-15 6.361109999999999741e-15 2.000000000000000000e+01 -5.764760000000000217e-15 -3.180550000000000771e-14 -3.975690000000000513e-16 -6.361110000000000530e-15 -7.951389999999995282e-16 1.997479999999999833e+01 -1.025649999999999951e+00 -2.819380000000000219e+00 2.400000000000000000e+01 -3.180550000000000771e-15 0.000000000000000000e+00 2.000000000000000000e+01 -2.385420000000000805e-15 -2.703469999999999574e-14 -3.975690000000000513e-16 -6.361110000000000530e-15 -7.951389999999995282e-16 1.978150000000000119e+01 -3.009479999999999933e+00 -8.305149999999999366e+00 2.400000000000000000e+01 1.590279999999999485e-15 -1.590279999999999485e-15 2.000000000000000000e+01 1.590280000000000077e-15 -1.272219999999999835e-14 3.784900000000000375e+00 -2.299539999999999651e+01 -5.094230000000000302e+01 -1.536410000000000053e+01 2.504870000000000019e+01 -1.149219999999999970e+02 3.722090000000000032e+01 -1.446529999999999916e+01 -3.524289999999999878e+01 -3.137210000000000321e+01 -1.611049999999999827e+01 -1.299050000000000082e+01 -2.818400000000000105e+01 1.072940000000000005e+01 -1.915919999999999845e+01 1.091089999999999986e-14 7.951389999999999226e-15 1.000000000000000000e+01 1.240350000000000049e-14 -4.770829999999999467e-15 1.000000000000000000e+01 1.372859999999999987e-15 3.578119999999999853e-15 1.987850000000001329e-16 -1.998179999999999978e+01 8.718970000000000331e-01 -2.396399999999999864e+00 -2.400000000000000000e+01 -5.069009999999998329e-15 -5.168399999999999338e-15 -2.000000000000000000e+01 -1.987850000000000145e-15 1.311979999999999992e-14 1.372859999999999987e-15 3.578119999999999853e-15 1.987850000000001329e-16 -2.000000000000000000e+01 7.156249999999997906e-15 -6.460499999999999962e-15 -2.400000000000000000e+01 4.770830000000001045e-15 3.975689999999992625e-16 -2.000000000000000000e+01 -4.572049999999999026e-15 1.272219999999999677e-14 1.372859999999999987e-15 3.578119999999999853e-15 1.987850000000001329e-16 -1.997479999999999833e+01 -1.025649999999999951e+00 2.819380000000000219e+00 -2.400000000000000000e+01 7.951390000000003171e-16 -1.987850000000003301e-16 -2.000000000000000000e+01 -1.590279999999999485e-15 1.202649999999999929e-14 1.372859999999999987e-15 3.578119999999999853e-15 1.987850000000001329e-16 -1.978150000000000119e+01 -3.009479999999999933e+00 8.305149999999999366e+00 -2.400000000000000000e+01 3.180549999999999193e-15 1.113189999999999773e-14 -2.000000000000000000e+01 -1.590280000000000274e-15 -3.975690000000002091e-15
3.150000000000000000e+03 0.000000000000000000e+00 0.000000000000000000e+00 0.000000000000000000e+00 0.000000000000000000e+00 0.000000000000000000e+00 2.569699999999999562e+01 8.349209999999995802e-01 -1.273880000000000052e+02 3.686639999999998452e+01 -3.819169999999999732e+01 3.569720000000000937e+01 -7.358830000000000204e+00 1.625220000000000198e+01 -2.764079999999998094e+00 4.289179999999999993e+00 8.576690000000001035e+00 4.920000000000000284e+01 3.651239999999999952e+01 -1.988380000000000791e+01 2.544369999999999976e+01 -2.396780000000000399e+01 4.317390000000000327e+01 2.709859999999999758e+01 -4.172919999999998630e+00 -2.853669999999999973e+01 2.066069999999999851e+00 -5.271639999999999660e+00 -4.839760000000000062e+00 -1.120469999999999899e+01 -1.229910000000000059e+00 -1.383759999999999879e+00 -2.691570000000000462e+00 -2.062190000000000190e+00 -2.320110000000000561e+00 -4.378140000000000143e+00 -5.861210000000001141e-01 -2.920890000000000430e-01 2.574100000000000499e+00 -1.105839999999999712e+00 -4.555069999999998842e+00 2.923590000000000089e+01 -9.961619999999999919e+00 5.227699999999999569e+00 3.108650000000000091e+01 -8.781950000000000589e-01 -9.360799999999969145e-02 5.213269999999999627e+00 8.254820000000002267e+00 -6.421119999999999095e+01 -2.138090000000000757e+01 3.857529999999999859e+01 2.486769999999998149e+00 1.198430000000000177e+02 1.798700000000000188e+01 -2.287250000000000227e+01 3.300060000000000215e+00 2.818400000000000105e+01 1.072940000000000005e+01 1.915919999999999845e+01 3.426009999999999044e-15 3.975689999999999725e-15 -1.000000000000000000e+01 -1.416040000000000030e-14 3.975689999999992625e-16 -1.000000000000000000e+01 8.348959999999998309e-15 -4.770830000000000256e-15 -3.975689999999999725e-15 1.998179999999999978e+01 8.718970000000000331e-01 2.396399999999999864e+00 2.400000000000000000e+01 -9.541660000000000512e-15 6.361109999999999741e-15 2.000000000000000000e+01 -8.746530000000000547e-15 -4.929859999999998898e-14 8.348959999999998309e-15 -4.770830000000000256e-15 -3.975689999999999725e-15 2.000000000000000000e+01 -3.180549999999999982e-15 1.272219999999999835e-14 2.400000000000000000e+01 -7.951389999999999226e-16 7.951389999999999226e-15 2.000000000000000000e+01 -5.367190000000000346e-15 -3.021529999999999066e-14 8.348959999999998309e-15 -4.770830000000000256e-15 -3.975689999999999725e-15 1.997479999999999833e+01 -1.025649999999999951e+00 -2.819380000000000219e+00 2.400000000000000000e+01 -1.590279999999999485e-15 3.180550000000000771e-15 2.000000000000000000e+01 -3.975689999999999725e-15 -2.862499999999999793e-14 8.348959999999998309e-15 -4.770830000000000256e-15 -3.975689999999999725e-15 1.978150000000000119e+01 -3.009479999999999933e+00 -8.305149999999999366e+00 2.400000000000000000e+01 -3.180549999999999982e-15 -2.385420000000000805e-15 2.000000000000000000e+01 3.180550000000000771e-15 -1.113189999999999931e-14 3.980529999999999902e+00 -2.286520000000000152e+01 -5.060880000000000223e+01 -1.525629999999999953e+01 2.482830000000000226e+01 -1.152210000000000036e+02 3.716510000000000957e+01 -1.461619999999999919e+01 -3.538220000000000454e+01 -3.131519999999999726e+01 -1.530470000000000041e+01 -1.527380000000000138e+01 -2.818400000000000105e+01 1.072940000000000005e+01 -1.915919999999999845e+01 7.479410000000000578e-15 7.951389999999999226e-15 1.000000000000000000e+01 1.060290000000000038e-14 -3.180549999999999982e-15 1.000000000000000000e+01 1.304519999999998171e-16 3.180549999999999982e-15 0.000000000000000000e+00 -1.998179999999999978e+01 8.718970000000000331e-01 -2.396399999999999864e+00 -2.400000000000000000e+01 -4.770830000000000256e-15 -5.565969999999999999e-15 -2.000000000000000000e+01 -1.590279999999999682e-15 1.232459999999999994e-14 1.304519999999998171e-16 3.180549999999999982e-15 0.000000000000000000e+00 -2.000000000000000000e+01 6.460499999999999173e-15 -6.361109999999999741e-15 -2.400000000000000000e+01 4.572049999999999815e-15 -1.192710000000000403e-15 -2.000000000000000000e+01 -3.776910000000000072e-15 1.351739999999999676e-14 1.304519999999998171e-16 3.180549999999999982e-15 0.000000000000000000e+00 -1.997479999999999833e+01 -1.025649999999999951e+00 2.819380000000000219e+00 -2.400000000000000000e+01 -3.975690000000000513e-16 4.969619999999989431e-17 -2.000000000000000000e+01 -2.782989999999999099e-15 1.272219999999999835e-14 1.304519999999998171e-16 3.180549999999999982e-15 0.000000000000000000e+00 -1.978150000000000119e+01 -3.009479999999999933e+00 8.305149999999999366e+00 -2.400000000000000000e+01 6.361109999999999741e-15 1.192709999999999772e-14 -2.000000000000000000e+01 0.000000000000000000e+00 -7.156249999999999484e-15
